<mxfile host="www.draw.io" modified="2024-03-28T13:20:19.680Z" agent="Mozilla/5.0 (Windows NT 10.0; Win64; x64) AppleWebKit/537.36 (KHTML, like Gecko) Chrome/123.0.0.0 Safari/537.36" etag="0_TGoJuhCnO-lm0lRx-I" version="24.2.0" type="device">
  <diagram name="Page-1" id="oWDxYpoP-wdd7GBvTysg">
    <mxGraphModel dx="1513" dy="753" grid="1" gridSize="10" guides="1" tooltips="1" connect="1" arrows="1" fold="1" page="1" pageScale="1" pageWidth="827" pageHeight="1169" math="0" shadow="0">
      <root>
        <mxCell id="0" />
        <mxCell id="1" parent="0" />
        <mxCell id="W1f9Kfvhu-RBb9aaWkG3-3" value="" style="edgeStyle=orthogonalEdgeStyle;rounded=0;orthogonalLoop=1;jettySize=auto;html=1;" edge="1" parent="1" source="W1f9Kfvhu-RBb9aaWkG3-1" target="W1f9Kfvhu-RBb9aaWkG3-2">
          <mxGeometry relative="1" as="geometry" />
        </mxCell>
        <mxCell id="W1f9Kfvhu-RBb9aaWkG3-12" style="edgeStyle=orthogonalEdgeStyle;rounded=0;orthogonalLoop=1;jettySize=auto;html=1;exitX=1;exitY=0.5;exitDx=0;exitDy=0;entryX=1;entryY=0.5;entryDx=0;entryDy=0;" edge="1" parent="1" source="W1f9Kfvhu-RBb9aaWkG3-1" target="W1f9Kfvhu-RBb9aaWkG3-10">
          <mxGeometry relative="1" as="geometry" />
        </mxCell>
        <mxCell id="W1f9Kfvhu-RBb9aaWkG3-1" value="&lt;b&gt;&lt;font style=&quot;font-size: 16px;&quot;&gt;Input&lt;/font&gt;&lt;/b&gt;" style="rounded=0;whiteSpace=wrap;html=1;fillColor=#f5f5f5;fontColor=#333333;strokeColor=#666666;rotation=-90;" vertex="1" parent="1">
          <mxGeometry x="-280" y="260" width="80" height="40" as="geometry" />
        </mxCell>
        <mxCell id="W1f9Kfvhu-RBb9aaWkG3-5" value="" style="edgeStyle=orthogonalEdgeStyle;rounded=0;orthogonalLoop=1;jettySize=auto;html=1;" edge="1" parent="1" source="W1f9Kfvhu-RBb9aaWkG3-2" target="W1f9Kfvhu-RBb9aaWkG3-4">
          <mxGeometry relative="1" as="geometry" />
        </mxCell>
        <mxCell id="W1f9Kfvhu-RBb9aaWkG3-2" value="&lt;span style=&quot;font-size: 16px;&quot;&gt;&lt;b&gt;3 * 3 Conv, 96&lt;/b&gt;&lt;/span&gt;" style="rounded=0;whiteSpace=wrap;html=1;fillColor=#f8cecc;strokeColor=#b85450;rotation=-90;" vertex="1" parent="1">
          <mxGeometry x="-190" y="260" width="80" height="40" as="geometry" />
        </mxCell>
        <mxCell id="W1f9Kfvhu-RBb9aaWkG3-7" value="" style="edgeStyle=orthogonalEdgeStyle;rounded=0;orthogonalLoop=1;jettySize=auto;html=1;" edge="1" parent="1" source="W1f9Kfvhu-RBb9aaWkG3-4" target="W1f9Kfvhu-RBb9aaWkG3-6">
          <mxGeometry relative="1" as="geometry" />
        </mxCell>
        <mxCell id="W1f9Kfvhu-RBb9aaWkG3-4" value="&lt;span style=&quot;font-size: 16px;&quot;&gt;&lt;b&gt;ReLU&lt;/b&gt;&lt;/span&gt;" style="rounded=0;whiteSpace=wrap;html=1;fillColor=#fff2cc;strokeColor=#d6b656;rotation=-90;" vertex="1" parent="1">
          <mxGeometry x="-120" y="260" width="80" height="40" as="geometry" />
        </mxCell>
        <mxCell id="W1f9Kfvhu-RBb9aaWkG3-9" value="" style="edgeStyle=orthogonalEdgeStyle;rounded=0;orthogonalLoop=1;jettySize=auto;html=1;" edge="1" parent="1" source="W1f9Kfvhu-RBb9aaWkG3-6" target="W1f9Kfvhu-RBb9aaWkG3-8">
          <mxGeometry relative="1" as="geometry" />
        </mxCell>
        <mxCell id="W1f9Kfvhu-RBb9aaWkG3-6" value="&lt;span style=&quot;font-size: 16px;&quot;&gt;&lt;b&gt;1 * 1 Conv,&lt;/b&gt;&lt;/span&gt;&lt;div&gt;&lt;span style=&quot;font-size: 16px;&quot;&gt;&lt;b&gt;1&lt;/b&gt;&lt;/span&gt;&lt;/div&gt;" style="rounded=0;whiteSpace=wrap;html=1;fillColor=#fff2cc;strokeColor=#d6b656;rotation=-90;" vertex="1" parent="1">
          <mxGeometry x="-40" y="255" width="100" height="50" as="geometry" />
        </mxCell>
        <mxCell id="W1f9Kfvhu-RBb9aaWkG3-11" value="" style="edgeStyle=orthogonalEdgeStyle;rounded=0;orthogonalLoop=1;jettySize=auto;html=1;" edge="1" parent="1" source="W1f9Kfvhu-RBb9aaWkG3-8" target="W1f9Kfvhu-RBb9aaWkG3-10">
          <mxGeometry relative="1" as="geometry" />
        </mxCell>
        <mxCell id="W1f9Kfvhu-RBb9aaWkG3-8" value="&lt;span style=&quot;font-size: 16px;&quot;&gt;&lt;b&gt;Sigmoid&lt;/b&gt;&lt;/span&gt;" style="rounded=0;whiteSpace=wrap;html=1;fillColor=#fff2cc;strokeColor=#d6b656;rotation=-90;" vertex="1" parent="1">
          <mxGeometry x="50" y="255" width="100" height="50" as="geometry" />
        </mxCell>
        <mxCell id="W1f9Kfvhu-RBb9aaWkG3-14" value="" style="edgeStyle=orthogonalEdgeStyle;rounded=0;orthogonalLoop=1;jettySize=auto;html=1;" edge="1" parent="1" source="W1f9Kfvhu-RBb9aaWkG3-10" target="W1f9Kfvhu-RBb9aaWkG3-13">
          <mxGeometry relative="1" as="geometry" />
        </mxCell>
        <mxCell id="W1f9Kfvhu-RBb9aaWkG3-10" value="&lt;span style=&quot;font-size: 16px;&quot;&gt;&lt;b&gt;Multiply&lt;/b&gt;&lt;/span&gt;" style="rounded=0;whiteSpace=wrap;html=1;fillColor=#fff2cc;strokeColor=#d6b656;rotation=-90;" vertex="1" parent="1">
          <mxGeometry x="150" y="255" width="100" height="50" as="geometry" />
        </mxCell>
        <mxCell id="W1f9Kfvhu-RBb9aaWkG3-13" value="&lt;span style=&quot;font-size: 16px;&quot;&gt;&lt;b&gt;Output&lt;/b&gt;&lt;/span&gt;" style="rounded=0;whiteSpace=wrap;html=1;fillColor=#f5f5f5;strokeColor=#666666;rotation=-90;fontColor=#333333;" vertex="1" parent="1">
          <mxGeometry x="230" y="255" width="100" height="50" as="geometry" />
        </mxCell>
      </root>
    </mxGraphModel>
  </diagram>
</mxfile>
